<svg xmlns="http://www.w3.org/2000/svg" fill="rgba(172, 172, 172, 1)" data-name="Layer 1" viewBox="0 0 32 32" id="calendar"><path d="M8,27H24a3,3,0,0,0,3-3V10a3,3,0,0,0-3-3H23V6a1,1,0,0,0-2,0V7H11V6A1,1,0,0,0,9,6V7H8a3,3,0,0,0-3,3V24A3,3,0,0,0,8,27Zm16-2H8a1,1,0,0,1-1-1V15H25v9A1,1,0,0,1,24,25ZM8,9H9v1a1,1,0,0,0,2,0V9H21v1a1,1,0,0,0,2,0V9h1a1,1,0,0,1,1,1v3H7V10A1,1,0,0,1,8,9Z"></path><path d="M21.62 17.08a1.15 1.15 0 0 0-.33.21A1.05 1.05 0 0 0 21 18a1.32 1.32 0 0 0 0 .2.63.63 0 0 0 .06.18.76.76 0 0 0 .09.18l.12.15a1.16 1.16 0 0 0 .33.21A.84.84 0 0 0 22 19a1.05 1.05 0 0 0 .71-.29A1 1 0 0 0 23 18a1.05 1.05 0 0 0-.29-.71A1 1 0 0 0 21.62 17.08zM18.71 17.29a1.16 1.16 0 0 0-.33-.21 1 1 0 0 0-1.09.21A1 1 0 0 0 18 19a1 1 0 0 0 .38-.08 1.16 1.16 0 0 0 .33-.21A1.05 1.05 0 0 0 19 18a1 1 0 0 0-.08-.38A1 1 0 0 0 18.71 17.29zM14.38 17.08a1 1 0 0 0-1.09.21A1.05 1.05 0 0 0 13 18a1.32 1.32 0 0 0 0 .2.63.63 0 0 0 .06.18.76.76 0 0 0 .09.18 1.6 1.6 0 0 0 .12.15A1.05 1.05 0 0 0 14 19a1 1 0 0 0 .38-.08 1.16 1.16 0 0 0 .33-.21 1 1 0 0 0 0-1.42A1.16 1.16 0 0 0 14.38 17.08zM18.38 21.08a1 1 0 0 0-1.09.21A1 1 0 0 0 17 22a1 1 0 0 0 .08.38 1.16 1.16 0 0 0 .21.33A1 1 0 0 0 18 23a1 1 0 0 0 .38-.08.9.9 0 0 0 .54-.54A1 1 0 0 0 19 22a1 1 0 0 0-.29-.71A1.16 1.16 0 0 0 18.38 21.08zM14.38 21.08a1 1 0 0 0-1.09.21A1.05 1.05 0 0 0 13 22a1 1 0 0 0 .08.38 1.16 1.16 0 0 0 .21.33A1.05 1.05 0 0 0 14 23a.84.84 0 0 0 .38-.08.9.9 0 0 0 .54-.54A1 1 0 0 0 15 22a1.05 1.05 0 0 0-.29-.71A1.16 1.16 0 0 0 14.38 21.08zM10.38 21.08a1 1 0 0 0-.76 0 1.15 1.15 0 0 0-.33.21 1 1 0 0 0 0 1.42 1.16 1.16 0 0 0 .33.21A.84.84 0 0 0 10 23a1 1 0 0 0 .71-1.71A1 1 0 0 0 10.38 21.08z"></path></svg>